<?xml version="1.0" encoding="UTF-8" ?>
<!DOCTYPE svg PUBLIC "-//W3C//DTD SVG 1.1//EN" "http://www.w3.org/Graphics/SVG/1.1/DTD/svg11.dtd">
<svg width="531pt" height="538pt" viewBox="0 0 531 538" version="1.1" xmlns="http://www.w3.org/2000/svg">
<path fill="#9a303e" stroke="#9a303e" stroke-width="0.09375" d=" M 0.0 0.0 L 182.3 0.0 C 182.8 1.5 183.5 1.5 184.1 0.0 L 281.2 0.0 C 286.0 0.9 290.9 0.8 295.6 0.0 L 298.6 0.0 L 298.5 0.0 C 298.6 0.0 298.7 0.0 298.8 0.0 L 309.0 0.0 C 309.8 1.6 310.4 1.6 310.8 0.0 L 328.1 0.0 C 331.8 1.1 335.7 0.8 339.5 0.0 L 366.6 0.0 L 366.5 0.0 C 366.6 0.0 366.7 0.0 366.7 0.0 L 528.5 0.0 C 527.0 0.2 525.5 0.3 524.0 0.5 C 526.5 2.0 528.8 3.7 531.0 5.6 L 531.0 169.1 C 529.3 170.0 529.1 172.5 531.0 173.3 L 531.0 538.0 L 0.0 538.0 L 0.0 0.0 Z" />
<path fill="#b7c0af" stroke="#b7c0af" stroke-width="0.09375" d=" M 182.3 0.0 L 184.1 0.0 C 183.5 1.5 182.8 1.5 182.3 0.0 Z" />
<path fill="#b7c0af" stroke="#b7c0af" stroke-width="0.09375" d=" M 281.2 0.0 L 295.6 0.0 C 290.9 0.8 286.0 0.9 281.2 0.0 Z" />
<path fill="#b7c0af" stroke="#b7c0af" stroke-width="0.09375" d=" M 298.6 0.0 L 298.8 0.0 C 298.7 0.0 298.6 0.0 298.5 0.0 L 298.6 0.0 Z" />
<path fill="#b7c0af" stroke="#b7c0af" stroke-width="0.09375" d=" M 309.0 0.0 L 310.8 0.0 C 310.4 1.6 309.8 1.6 309.0 0.0 Z" />
<path fill="#b7c0af" stroke="#b7c0af" stroke-width="0.09375" d=" M 328.1 0.0 L 339.5 0.0 C 335.7 0.8 331.8 1.1 328.1 0.0 Z" />
<path fill="#b7c0af" stroke="#b7c0af" stroke-width="0.09375" d=" M 366.6 0.0 L 366.7 0.0 C 366.7 0.0 366.6 0.0 366.5 0.0 L 366.6 0.0 Z" />
<path fill="#b7c0af" stroke="#b7c0af" stroke-width="0.09375" d=" M 528.5 0.0 L 531.0 0.0 L 531.0 5.6 C 528.8 3.7 526.5 2.0 524.0 0.5 C 525.5 0.3 527.0 0.2 528.5 0.0 Z" />
<path fill="#b7c0af" stroke="#b7c0af" stroke-width="0.09375" d=" M 502.2 0.8 C 505.3 -0.6 502.2 4.2 502.2 0.8 Z" />
<path fill="#b7c0af" stroke="#b7c0af" stroke-width="0.09375" d=" M 129.3 14.2 C 129.7 14.8 129.7 14.8 129.3 14.2 Z" />
<path fill="#faf2e5" stroke="#faf2e5" stroke-width="0.09375" d=" M 198.1 52.9 C 206.4 51.4 214.8 50.2 223.2 48.7 C 230.8 47.6 238.4 49.0 246.0 49.1 C 251.1 49.5 256.2 49.4 261.0 50.8 C 272.0 53.9 283.0 56.8 294.0 60.1 C 294.4 60.2 295.2 60.4 295.6 60.6 C 296.7 63.0 297.4 65.5 298.1 67.9 C 305.0 67.8 311.9 68.1 318.8 69.1 C 331.5 72.9 343.1 79.3 355.1 84.9 C 362.9 88.3 369.8 93.5 377.0 98.0 C 385.0 103.0 391.8 109.6 399.4 115.2 C 401.9 117.5 403.7 120.4 405.9 123.0 C 411.8 129.5 417.7 136.1 423.2 143.0 C 430.3 153.0 438.8 161.8 446.9 171.0 C 448.6 173.0 450.5 175.0 451.6 177.4 C 454.5 185.2 457.7 192.9 461.1 200.6 C 465.2 211.7 469.7 222.7 473.4 234.0 C 469.5 234.1 465.6 233.9 461.7 233.3 C 467.3 235.4 473.1 238.3 476.2 243.7 C 479.1 249.4 481.0 255.8 481.3 262.2 C 480.8 263.8 479.2 264.4 477.8 264.8 C 472.0 263.6 466.0 262.9 460.7 260.0 L 460.4 259.9 C 455.5 256.3 454.1 249.7 454.1 244.0 C 453.9 240.0 454.1 235.3 457.1 232.3 C 457.8 232.5 459.3 232.7 460.0 232.8 C 457.0 229.5 454.4 225.8 451.9 222.1 C 455.8 222.2 459.6 222.5 463.5 223.0 C 457.7 220.0 451.8 217.0 446.1 213.9 C 444.6 211.7 443.4 209.4 441.3 207.7 C 431.6 199.3 421.4 191.4 411.1 183.7 C 415.0 180.8 418.8 177.5 423.0 175.1 C 425.9 173.7 429.1 173.9 432.2 173.7 C 435.2 174.2 437.9 175.9 440.7 177.1 C 441.6 175.7 442.6 174.4 443.5 173.0 C 438.5 170.2 433.1 168.1 427.4 167.3 C 427.5 162.4 427.3 157.6 427.3 152.7 C 425.4 152.7 423.4 152.7 421.4 152.6 C 420.8 157.6 419.7 162.6 418.8 167.5 C 414.2 171.4 410.0 175.6 405.3 179.3 C 393.4 172.0 382.9 162.6 371.4 154.7 C 362.2 147.2 350.1 145.5 338.8 143.7 C 323.4 141.6 308.0 139.5 292.6 137.1 C 287.7 136.1 283.4 133.5 278.5 132.6 C 269.8 131.0 260.9 131.1 252.1 131.8 C 241.0 132.0 230.0 132.1 219.0 133.0 C 211.3 134.9 203.8 137.8 197.6 142.6 C 191.4 146.7 186.2 151.9 180.3 156.4 C 174.0 171.9 167.4 187.3 160.5 202.6 C 157.6 209.0 154.0 215.2 152.4 222.1 C 141.3 222.1 130.1 221.7 119.0 221.1 C 109.0 221.1 99.0 220.5 89.0 220.0 C 75.5 220.1 62.0 218.7 48.5 218.9 C 55.7 202.1 62.7 185.2 69.0 168.0 C 75.0 151.3 82.1 135.0 90.8 119.5 C 98.3 110.6 107.0 102.7 115.9 95.2 C 116.3 95.6 117.3 96.5 117.8 96.9 C 117.5 96.1 117.1 95.2 116.7 94.4 C 124.3 89.4 130.6 82.8 138.6 78.5 C 145.9 74.3 153.1 69.7 160.5 65.5 C 167.8 62.0 175.4 59.0 183.0 56.1 C 187.9 54.2 193.0 53.8 198.1 52.9 Z" />
<path fill="#1c1c1e" stroke="#1c1c1e" stroke-width="0.09375" d=" M 294.8 56.0 C 308.1 55.1 321.5 54.0 334.9 54.6 C 339.6 54.9 344.3 54.9 349.0 55.1 C 351.8 55.2 353.8 57.4 356.0 58.8 C 367.7 66.8 379.6 74.4 390.3 83.7 C 395.7 89.0 400.8 94.5 406.0 99.9 C 411.6 104.7 416.2 110.5 420.5 116.4 C 427.6 127.5 436.8 137.0 444.1 147.9 C 447.2 152.2 450.7 156.1 453.3 160.6 C 457.3 167.4 462.4 173.6 464.8 181.2 C 469.9 195.6 475.6 209.6 481.0 223.8 C 482.7 227.7 484.5 231.7 485.3 235.9 C 478.7 226.9 473.0 217.3 467.1 207.9 C 465.4 205.2 463.2 202.9 461.1 200.6 C 457.7 192.9 454.5 185.2 451.6 177.4 C 450.5 175.0 448.6 173.0 446.9 171.0 C 438.8 161.8 430.3 153.0 423.2 143.0 C 417.7 136.1 411.8 129.5 405.9 123.0 C 403.7 120.4 401.9 117.5 399.4 115.2 C 394.8 107.8 388.7 101.5 383.4 94.6 C 380.3 90.8 377.7 86.1 372.8 84.5 L 372.6 84.4 L 372.3 84.3 C 363.2 79.6 353.7 75.2 343.8 72.2 C 335.6 70.4 327.2 69.3 318.8 69.1 C 311.9 68.1 305.0 67.8 298.1 67.9 C 297.4 65.5 296.7 63.0 295.6 60.6 C 295.2 60.4 294.4 60.2 294.0 60.1 L 295.3 60.1 C 295.1 58.7 295.0 57.4 294.8 56.0 Z" />
<path fill="#9a303e" stroke="#9a303e" stroke-width="0.09375" d=" M 239.2 58.0 C 243.2 60.8 246.6 64.5 250.3 67.7 C 252.8 69.5 253.2 72.8 253.7 75.7 C 252.4 82.8 250.2 90.8 243.7 94.9 C 241.1 95.6 238.4 96.2 235.8 96.8 C 236.6 87.2 237.4 77.6 237.6 67.9 C 237.6 64.6 238.4 61.3 239.2 58.0 Z" />
<path fill="#9a303e" stroke="#9a303e" stroke-width="0.09375" d=" M 204.9 65.0 C 207.2 64.1 209.6 63.2 211.9 62.3 C 212.4 65.8 212.9 69.3 213.2 72.8 C 215.2 72.4 217.3 72.0 219.2 71.3 C 218.6 68.0 218.1 64.6 217.6 61.2 C 220.4 61.4 223.1 61.5 225.9 61.6 C 226.5 72.6 229.1 83.5 230.5 94.5 C 228.0 94.8 225.5 95.2 223.0 95.8 C 221.8 90.0 219.5 84.3 218.9 78.3 C 216.7 78.9 214.4 79.4 212.4 80.5 C 213.7 86.0 213.9 91.7 215.8 97.1 C 213.1 96.9 210.4 96.7 207.7 96.7 C 207.4 88.9 207.5 81.1 205.7 73.5 C 205.3 70.7 205.2 67.8 204.9 65.0 Z" />
<path fill="#b7c0af" stroke="#b7c0af" stroke-width="0.09375" d=" M 451.2 63.3 C 451.7 63.7 451.7 63.7 451.2 63.3 Z" />
<path fill="#9a303e" stroke="#9a303e" stroke-width="0.09375" d=" M 269.5 64.1 C 273.3 65.4 277.0 66.8 280.8 68.2 C 281.4 79.0 280.5 89.7 278.8 100.4 C 277.1 100.4 275.4 100.4 273.7 100.4 C 272.5 96.3 271.8 92.1 270.8 88.0 C 269.4 88.1 267.8 87.7 266.5 88.3 C 264.7 91.5 263.3 94.8 261.7 98.1 C 259.5 97.2 257.3 96.4 255.0 95.8 C 258.5 88.9 261.5 81.7 264.6 74.7 C 265.9 71.0 267.5 67.4 269.5 64.1 Z" />
<path fill="#9a303e" stroke="#9a303e" stroke-width="0.09375" d=" M 181.0 66.1 C 183.2 65.3 185.5 64.9 187.8 64.9 C 188.8 69.1 190.1 73.2 190.5 77.5 C 192.9 78.2 195.5 77.3 197.9 77.0 C 198.3 79.1 198.8 81.2 199.3 83.3 C 196.1 84.4 192.5 84.6 190.0 87.0 C 191.8 93.5 193.0 100.3 194.5 107.0 C 192.2 107.0 189.9 107.1 187.7 107.1 C 186.3 101.4 184.9 95.6 183.9 89.7 C 181.7 89.2 179.5 88.9 177.3 88.5 C 177.1 85.6 176.9 82.7 176.4 79.9 C 178.9 79.7 181.4 79.5 183.9 79.2 C 182.1 75.1 181.5 70.6 181.0 66.1 Z" />
<path fill="#9a303e" stroke="#9a303e" stroke-width="0.09375" d=" M 318.8 69.1 C 327.2 69.3 335.6 70.4 343.8 72.2 C 353.7 75.2 363.2 79.6 372.3 84.3 L 372.5 84.4 L 372.8 84.5 C 377.7 86.1 380.3 90.8 383.4 94.6 C 388.7 101.5 394.8 107.8 399.4 115.2 C 391.8 109.6 385.0 103.0 377.0 98.0 C 369.8 93.5 362.9 88.3 355.1 84.9 C 343.1 79.3 331.5 72.9 318.8 69.1 Z" />
<path fill="#9a303e" stroke="#9a303e" stroke-width="0.09375" d=" M 288.3 70.3 C 291.0 71.0 293.7 71.6 296.4 72.2 C 296.2 76.6 296.1 81.1 296.4 85.6 L 295.1 85.5 C 296.2 86.3 297.2 87.0 298.2 87.7 C 303.0 84.8 308.2 82.8 313.7 82.1 C 315.6 82.6 317.4 83.3 319.2 83.9 C 318.0 86.6 317.7 89.7 316.1 92.0 C 311.8 91.3 306.9 91.3 303.4 94.4 C 298.8 100.1 296.5 107.3 293.6 114.0 C 291.3 112.7 289.0 111.4 286.7 110.0 C 288.1 106.0 289.8 102.1 290.4 97.8 C 289.7 88.7 289.2 79.5 288.3 70.3 Z" />
<path fill="#9a303e" stroke="#9a303e" stroke-width="0.09375" d=" M 159.2 81.7 C 164.2 82.2 169.0 83.5 174.0 84.2 C 173.6 85.8 173.2 87.4 172.9 89.0 C 171.0 88.5 168.8 87.7 167.0 89.0 C 165.1 90.0 164.7 92.2 164.0 94.0 C 166.4 99.7 169.7 104.9 171.6 110.7 C 169.8 111.8 168.0 112.9 166.3 114.0 C 164.5 110.1 162.6 106.2 160.4 102.5 C 158.2 99.5 154.9 97.6 151.9 95.3 C 150.5 96.1 149.1 96.9 147.7 97.7 C 148.3 94.8 148.9 92.0 149.2 89.1 C 151.7 89.6 154.3 90.0 156.9 90.1 C 157.1 87.2 158.0 84.4 159.2 81.7 Z" />
<path fill="#b7c0af" stroke="#b7c0af" stroke-width="0.09375" d=" M 372.3 84.3 L 372.6 84.4 L 372.8 84.5 L 372.5 84.4 L 372.3 84.3 Z" />
<path fill="#9a303e" stroke="#9a303e" stroke-width="0.09375" d=" M 136.1 89.9 C 138.3 89.3 140.6 89.7 142.9 89.8 C 143.2 91.9 143.5 93.9 144.0 95.9 C 140.6 97.3 137.3 98.6 133.9 99.8 C 132.7 98.6 131.5 97.4 130.3 96.2 C 131.9 93.9 133.5 91.3 136.1 89.9 Z" />
<path fill="#9a303e" stroke="#9a303e" stroke-width="0.09375" d=" M 335.3 90.7 C 338.1 92.9 341.6 94.3 343.9 97.1 C 345.3 100.1 347.1 103.9 345.2 107.1 C 344.2 109.2 342.9 111.2 341.7 113.3 C 338.5 113.3 335.4 112.0 332.2 111.6 C 329.2 114.7 328.1 119.2 326.1 123.1 C 323.7 121.8 321.3 120.7 318.8 119.6 C 323.4 109.5 329.7 100.3 335.3 90.7 Z" />
<path fill="#9a303e" stroke="#9a303e" stroke-width="0.09375" d=" M 342.6 120.7 C 349.1 113.5 354.6 105.3 362.1 99.0 C 365.9 100.2 369.4 102.4 372.9 104.1 C 368.6 113.5 364.6 123.1 361.1 132.8 C 359.0 131.7 356.9 130.6 354.8 129.6 C 356.9 125.1 359.4 120.7 360.9 116.0 C 359.5 116.2 358.2 116.6 356.8 117.0 C 356.7 116.4 356.6 115.3 356.5 114.8 C 353.3 117.7 350.2 120.8 347.4 124.2 C 345.8 123.0 344.2 121.8 342.6 120.7 Z" />
<path fill="#9a303e" stroke="#9a303e" stroke-width="0.09375" d=" M 139.0 102.9 C 140.5 101.4 143.2 101.5 145.1 100.7 C 150.2 109.0 153.7 118.0 157.8 126.8 C 155.9 127.7 154.1 128.6 152.3 129.5 C 148.3 120.4 143.9 111.5 139.0 102.9 Z" />
<path fill="#9a303e" stroke="#9a303e" stroke-width="0.09375" d=" M 114.5 105.9 C 116.3 104.6 118.2 103.3 120.0 102.0 C 123.6 102.9 127.2 103.7 130.9 104.2 C 132.8 107.2 131.1 110.4 130.3 113.4 C 133.9 115.2 138.0 116.2 140.9 119.0 C 143.4 122.1 144.9 126.0 145.1 130.0 C 142.2 133.3 138.3 135.6 134.3 137.3 C 130.7 131.0 128.7 123.8 123.6 118.5 C 120.3 114.5 117.2 110.3 114.5 105.9 Z" />
<path fill="#9a303e" stroke="#9a303e" stroke-width="0.09375" d=" M 382.5 114.7 C 383.0 115.0 383.8 115.6 384.3 116.0 C 383.9 117.9 383.5 119.9 383.1 121.8 C 386.3 122.1 389.6 122.7 392.8 123.1 C 395.6 125.1 397.1 128.6 396.0 131.9 C 394.8 134.2 393.4 136.5 391.7 138.5 C 390.1 139.1 388.5 139.5 386.9 139.9 C 385.9 138.9 384.9 137.8 383.9 136.7 C 384.5 135.3 385.0 133.9 385.6 132.5 C 384.4 130.9 383.2 129.2 381.6 127.9 C 377.5 130.3 374.3 134.1 371.0 137.4 C 369.2 135.7 367.5 134.0 365.7 132.4 C 367.4 129.3 370.5 127.5 372.8 125.0 C 376.1 121.6 379.4 118.2 382.5 114.7 Z" />
<path fill="#b7c0af" stroke="#b7c0af" stroke-width="0.09375" d=" M 52.3 118.2 C 52.7 118.8 52.7 118.8 52.3 118.2 Z" />
<path fill="#9a303e" stroke="#9a303e" stroke-width="0.09375" d=" M 100.4 125.3 C 102.9 125.2 105.4 125.2 107.9 125.2 C 111.4 128.0 116.1 129.8 118.1 134.1 C 112.7 138.3 106.9 141.9 101.2 145.6 C 103.6 149.5 108.4 151.4 112.8 150.0 C 115.1 147.8 116.7 145.0 117.4 141.8 C 119.2 141.9 120.9 142.0 122.7 142.1 C 122.2 145.5 121.3 148.9 120.3 152.2 C 116.4 153.9 112.7 156.1 108.6 157.5 C 105.8 156.1 103.4 153.8 100.7 152.3 C 98.0 150.9 96.9 147.9 95.1 145.7 C 94.4 142.9 93.6 140.0 93.6 137.1 C 95.0 132.8 97.0 128.5 100.4 125.3 Z" />
<path fill="#1c1c1e" stroke="#1c1c1e" stroke-width="0.09375" d=" M 252.1 131.8 C 260.9 131.1 269.8 131.0 278.5 132.6 C 283.4 133.5 287.7 136.1 292.6 137.1 C 300.6 140.1 308.7 142.8 317.0 144.9 C 329.1 148.2 339.7 155.3 350.5 161.5 C 364.7 168.3 378.8 175.3 393.1 181.9 C 403.7 186.7 413.9 192.7 423.2 199.8 C 430.2 205.4 437.9 210.2 446.1 213.9 C 451.8 217.0 457.7 220.0 463.5 223.0 C 459.6 222.5 455.8 222.2 451.9 222.1 C 447.1 221.5 442.8 218.9 438.1 217.8 C 429.9 215.6 422.9 210.5 415.4 206.6 C 406.5 200.9 397.6 195.3 387.9 191.0 C 378.1 186.7 368.7 181.2 358.1 179.1 C 352.4 177.9 346.8 176.2 341.1 175.0 C 330.0 172.7 319.3 168.9 308.1 167.3 C 297.3 164.7 286.1 163.8 275.0 163.0 C 266.0 163.0 256.9 161.5 247.9 162.2 C 236.6 163.7 225.3 164.9 214.1 166.3 C 210.2 166.6 207.8 169.7 204.8 171.7 C 191.0 182.0 178.4 193.7 166.5 206.2 C 164.4 205.1 162.4 204.0 160.5 202.6 C 167.4 187.3 174.0 171.9 180.3 156.4 C 186.2 151.9 191.4 146.7 197.6 142.6 C 203.8 137.8 211.3 134.9 219.0 133.0 C 230.0 132.1 241.0 132.0 252.1 131.8 Z" />
<path fill="#9a303e" stroke="#9a303e" stroke-width="0.09375" d=" M 292.6 137.1 C 308.0 139.5 323.4 141.6 338.8 143.7 C 350.1 145.5 362.2 147.2 371.4 154.7 C 382.9 162.6 393.4 172.0 405.3 179.3 C 410.0 175.6 414.2 171.4 418.8 167.5 C 419.7 162.6 420.8 157.6 421.4 152.6 C 423.4 152.7 425.4 152.7 427.3 152.7 C 427.3 157.6 427.5 162.4 427.4 167.3 C 433.1 168.1 438.5 170.2 443.5 173.0 C 442.6 174.4 441.6 175.7 440.7 177.1 C 437.9 175.9 435.2 174.2 432.2 173.7 C 429.1 173.9 425.9 173.7 423.0 175.1 C 418.8 177.5 415.0 180.8 411.1 183.7 C 421.4 191.4 431.6 199.3 441.3 207.7 C 443.4 209.4 444.6 211.7 446.1 213.9 C 437.9 210.2 430.2 205.4 423.2 199.8 C 413.9 192.7 403.7 186.7 393.1 181.9 C 378.8 175.3 364.7 168.3 350.5 161.5 C 339.7 155.3 329.1 148.2 317.0 144.9 C 308.7 142.8 300.6 140.1 292.6 137.1 Z" />
<path fill="#9a303e" stroke="#9a303e" stroke-width="0.09375" d=" M 405.0 143.1 C 406.9 141.1 408.7 139.0 410.5 136.9 C 412.0 138.3 413.6 139.7 415.3 141.0 C 413.3 143.2 411.2 145.3 409.2 147.5 C 411.0 149.1 412.8 150.7 414.6 152.3 C 412.9 154.2 411.2 156.1 409.5 158.1 C 407.7 156.2 406.4 153.3 403.6 152.8 C 400.7 157.4 396.4 160.8 393.0 164.9 C 391.2 163.5 389.4 162.0 387.6 160.6 C 391.0 157.0 394.3 153.1 397.7 149.5 C 396.5 147.4 395.0 145.4 393.6 143.5 C 395.9 141.8 398.2 140.0 400.3 138.0 C 401.7 139.8 403.2 141.6 405.0 143.1 Z" />
<path fill="#9a303e" stroke="#9a303e" stroke-width="0.09375" d=" M 252.3 150.2 C 252.7 150.8 252.7 150.8 252.3 150.2 Z" />
<path fill="#9a303e" stroke="#9a303e" stroke-width="0.09375" d=" M 91.4 154.1 C 96.7 157.7 101.8 161.4 107.2 164.8 C 111.6 167.4 115.1 171.3 119.3 174.2 C 117.2 177.1 115.3 180.1 113.6 183.3 C 110.2 180.6 107.4 177.1 103.5 174.9 C 102.3 176.3 101.0 177.6 99.9 179.1 C 103.1 182.2 106.7 185.0 109.9 188.2 C 108.4 190.0 106.9 191.8 105.3 193.6 C 97.5 187.5 89.8 181.4 82.4 174.8 C 83.2 172.7 84.1 170.7 85.0 168.7 C 87.8 170.4 90.5 172.1 93.2 173.9 C 95.4 172.1 96.8 169.7 98.0 167.2 C 94.8 164.2 90.7 162.8 87.2 160.3 C 88.6 158.2 90.1 156.2 91.4 154.1 Z" />
<path fill="#b7c0af" stroke="#b7c0af" stroke-width="0.09375" d=" M 145.1 165.5 C 146.4 165.0 146.9 165.5 146.6 166.9 C 145.2 167.4 144.7 166.9 145.1 165.5 Z" />
<path fill="#b7c0af" stroke="#b7c0af" stroke-width="0.09375" d=" M 531.0 173.3 C 529.1 172.5 529.3 170.0 531.0 169.1 L 531.0 173.3 Z" />
<path fill="#9a303e" stroke="#9a303e" stroke-width="0.09375" d=" M 73.5 179.7 C 76.6 181.1 79.6 182.6 82.6 184.2 C 80.4 187.0 78.4 189.9 76.2 192.7 C 76.5 193.1 77.1 194.0 77.4 194.4 C 84.8 196.5 92.0 198.9 99.4 200.9 C 99.0 203.6 98.5 206.2 97.7 208.8 C 90.1 206.5 82.8 203.3 74.9 202.1 C 75.0 205.5 75.6 208.8 76.3 212.2 C 72.4 211.5 68.6 211.0 64.7 210.8 C 66.0 204.0 67.2 197.1 68.3 190.3 C 69.9 186.7 72.0 183.4 73.5 179.7 Z" />
<path fill="#1c1c1e" stroke="#1c1c1e" stroke-width="0.09375" d=" M 438.4 248.3 C 443.0 243.9 447.3 239.0 452.0 234.5 C 452.7 240.7 452.5 246.9 453.0 253.1 C 452.8 257.2 457.6 258.1 460.4 259.9 L 460.7 260.0 C 463.6 262.5 467.3 264.0 471.1 264.4 C 473.0 264.8 475.2 264.5 476.8 265.8 C 473.1 266.5 469.4 266.9 465.8 268.1 C 460.9 269.8 455.7 270.2 450.8 271.6 C 435.5 275.5 422.3 284.5 408.0 290.9 C 400.8 294.3 394.3 299.0 386.8 301.9 C 380.1 304.9 372.9 306.8 366.6 310.6 C 366.1 310.5 365.2 310.3 364.7 310.2 C 365.0 309.7 365.7 308.6 366.0 308.0 C 362.3 304.8 356.8 306.6 354.5 310.6 C 347.6 314.1 340.6 317.6 333.3 320.3 C 333.8 318.7 335.0 317.5 336.1 316.3 C 333.3 314.2 330.1 315.2 327.7 317.3 C 328.7 318.1 329.8 319.0 330.9 319.8 C 331.3 320.9 331.8 322.0 332.2 323.2 C 339.7 320.1 347.0 316.7 354.5 313.6 C 353.9 314.9 354.0 316.7 352.6 317.5 C 343.7 323.6 333.0 326.5 324.5 333.1 C 318.4 337.3 312.1 341.2 305.9 345.2 C 302.8 347.3 299.7 349.2 296.7 351.3 L 296.2 350.9 C 295.2 350.0 294.2 349.2 293.3 348.3 C 291.9 348.8 290.5 349.3 289.1 349.8 C 289.1 352.4 288.1 354.7 287.0 357.0 C 284.5 359.1 281.3 359.9 278.4 361.4 C 270.5 365.3 262.4 368.8 254.8 373.2 C 252.5 373.3 250.1 373.4 247.8 373.8 C 246.3 374.1 244.8 374.5 243.4 375.0 C 240.1 376.1 236.7 377.1 233.4 378.0 C 235.5 374.7 237.2 370.7 241.0 369.0 C 247.7 365.5 254.6 362.1 260.8 357.8 C 269.7 351.8 279.4 347.4 289.1 343.1 C 289.5 344.4 289.9 345.7 290.3 347.0 L 291.1 347.0 C 291.6 347.0 292.7 347.0 293.2 347.0 C 293.0 345.1 292.7 343.2 291.7 341.5 C 295.2 339.8 298.2 337.1 302.0 335.9 C 304.0 335.4 306.0 334.8 308.0 334.1 L 308.0 335.3 C 308.0 336.6 308.1 337.8 308.2 339.1 C 311.3 338.7 313.4 336.3 315.9 334.6 C 314.5 332.8 313.2 330.9 312.4 328.8 C 314.4 329.1 316.4 329.5 318.4 329.8 L 318.7 329.6 C 318.9 329.4 319.3 329.0 319.5 328.8 C 322.7 326.3 322.6 322.0 323.2 318.3 C 331.8 312.9 340.4 307.5 348.4 301.3 C 352.0 298.6 356.0 296.5 360.1 294.4 C 361.1 293.9 362.1 293.3 363.1 292.7 C 362.9 292.3 362.3 291.5 362.1 291.1 C 362.6 291.4 363.6 291.8 364.1 292.1 C 367.9 289.5 371.8 287.0 376.1 285.1 C 377.2 284.5 378.3 283.9 379.4 283.3 C 384.4 280.7 389.1 277.6 393.9 274.7 L 395.3 274.8 C 396.5 274.9 397.8 275.0 399.1 275.1 C 399.8 274.4 400.5 273.6 401.1 272.8 L 401.5 271.6 C 401.8 269.7 404.4 268.1 406.1 268.9 C 406.5 269.2 407.5 269.8 408.0 270.1 C 408.9 269.8 409.6 269.2 410.0 268.3 C 410.4 267.3 411.0 266.5 411.5 265.6 C 420.2 259.5 430.9 256.2 438.4 248.3 Z" />
<path fill="#b7c0af" stroke="#b7c0af" stroke-width="0.09375" d=" M 59.6 243.6 C 64.4 241.5 69.6 240.8 74.2 238.4 C 83.3 239.3 92.1 241.7 100.8 244.3 C 104.4 245.5 108.3 245.2 111.9 246.4 C 115.9 247.6 120.0 249.0 124.1 250.1 C 127.2 251.0 130.7 250.5 133.6 252.3 C 139.2 255.4 143.7 260.1 148.9 263.9 C 141.6 270.7 143.1 282.7 149.1 289.8 C 151.5 292.1 153.9 294.2 156.3 296.4 L 157.4 297.0 C 160.9 299.3 163.7 302.6 167.4 304.5 C 172.1 306.7 177.2 302.6 177.0 297.7 L 177.1 297.4 C 177.5 297.3 178.2 297.1 178.6 297.0 C 185.7 303.0 192.9 309.0 200.4 314.6 C 208.1 319.7 216.1 324.5 222.7 331.0 C 225.8 335.5 227.6 340.8 229.2 346.0 C 229.9 346.0 231.3 346.0 232.0 345.9 L 231.4 346.7 C 230.3 348.8 232.5 351.4 233.0 353.6 C 227.3 356.9 221.9 360.8 217.3 365.5 C 216.6 366.7 217.3 368.2 217.3 369.6 C 214.3 371.4 211.6 373.9 210.8 377.4 C 210.7 377.9 210.5 378.9 210.4 379.4 C 207.5 382.3 204.1 384.6 200.7 386.7 C 198.5 388.0 197.9 390.6 196.9 392.7 C 195.4 391.9 194.0 391.1 192.5 390.2 C 189.6 389.0 186.7 387.9 183.8 386.7 C 183.4 386.9 182.7 387.3 182.4 387.5 C 182.0 387.2 181.2 386.5 180.9 386.1 C 169.4 383.6 158.3 379.0 148.4 372.5 C 144.6 369.0 139.4 365.5 139.7 359.7 C 137.3 362.8 135.1 365.9 133.1 369.2 C 133.5 374.4 137.0 378.8 139.8 383.0 C 143.3 386.2 147.5 388.7 150.7 392.3 C 160.6 402.6 173.3 409.4 186.3 414.9 C 191.5 416.2 196.4 413.1 201.5 412.3 C 201.9 412.5 202.7 412.9 203.0 413.0 C 207.1 410.6 211.7 409.8 216.1 408.1 C 219.5 406.8 223.6 407.0 226.5 404.5 C 230.1 402.2 232.3 398.3 235.5 395.6 C 241.1 390.0 237.3 380.2 243.4 375.0 C 244.8 374.5 246.3 374.1 247.8 373.8 C 249.0 378.8 250.9 383.6 251.6 388.8 C 250.7 392.4 249.9 396.3 247.1 399.1 C 242.5 403.8 239.4 409.8 234.5 414.3 C 227.3 418.7 219.3 421.6 212.4 426.3 C 207.4 429.8 201.0 427.6 195.5 429.4 C 191.4 431.0 187.5 428.5 183.7 427.2 C 177.5 425.0 172.0 421.1 166.5 417.6 C 161.5 414.6 156.8 411.1 151.5 408.5 C 138.7 402.5 127.3 391.0 125.7 376.5 C 123.5 378.0 121.6 379.8 119.5 381.5 C 117.0 384.4 114.0 386.8 111.8 390.0 C 107.5 396.4 101.8 402.4 94.5 405.5 C 87.8 408.6 82.7 414.1 76.0 416.9 C 72.5 417.2 69.0 417.0 65.5 416.5 C 60.9 415.7 57.2 412.8 53.0 410.8 C 48.5 408.8 44.7 405.3 41.1 401.9 C 35.9 393.6 33.5 384.0 30.4 374.8 C 28.4 369.5 28.2 363.6 25.5 358.5 C 21.3 351.9 16.3 345.5 14.0 337.9 C 11.9 331.1 9.6 324.1 10.4 316.9 C 12.1 305.4 18.3 295.2 21.1 283.9 C 22.7 278.8 23.8 273.4 26.8 268.9 C 30.9 262.4 37.5 258.3 43.1 253.2 C 47.8 248.8 53.8 246.2 59.6 243.6 Z" />
<path fill="#b7c0af" stroke="#b7c0af" stroke-width="0.09375" d=" M 430.3 256.3 C 430.8 256.8 430.8 256.8 430.3 256.3 Z" />
<path fill="#faf2e5" stroke="#faf2e5" stroke-width="0.09375" d=" M 392.2 265.2 C 393.5 264.6 394.9 265.2 395.2 266.6 C 396.0 268.8 396.8 271.0 398.0 273.1 C 399.2 272.6 400.3 272.1 401.5 271.6 L 401.1 272.8 C 400.5 273.6 399.8 274.4 399.1 275.1 C 397.8 275.0 396.5 274.9 395.3 274.8 C 393.9 273.7 392.7 272.5 391.5 271.2 C 390.6 271.5 389.7 271.9 388.8 272.2 C 387.2 269.6 389.2 265.5 392.2 265.2 Z" />
<path fill="#faf2e5" stroke="#faf2e5" stroke-width="0.09375" d=" M 146.7 268.9 C 147.9 267.4 149.6 266.4 151.1 265.1 C 154.6 265.1 158.0 266.1 160.5 268.6 C 165.4 273.0 170.9 276.9 175.1 282.0 C 176.8 286.9 179.3 292.2 177.1 297.4 L 177.0 297.7 C 174.5 300.8 171.8 304.5 167.4 304.5 C 163.7 302.6 160.9 299.3 157.4 297.0 C 154.5 293.6 151.5 290.1 148.6 286.5 C 144.4 281.8 144.3 274.5 146.7 268.9 Z" />
<path fill="#faf2e5" stroke="#faf2e5" stroke-width="0.09375" d=" M 79.2 268.3 C 79.7 268.8 79.7 268.8 79.2 268.3 Z" />
<path fill="#faf2e5" stroke="#faf2e5" stroke-width="0.09375" d=" M 406.2 268.3 C 407.5 267.5 408.7 267.5 410.0 268.3 C 409.6 269.2 408.9 269.8 408.0 270.1 C 407.5 269.8 406.5 269.2 406.1 268.9 L 406.2 268.3 Z" />
<path fill="#faf2e5" stroke="#faf2e5" stroke-width="0.09375" d=" M 375.3 274.3 C 377.5 273.2 379.1 275.3 380.8 276.3 C 379.9 277.2 379.0 278.2 378.2 279.1 C 378.6 280.5 379.0 281.9 379.4 283.3 C 378.3 283.9 377.2 284.5 376.1 285.1 C 375.6 283.6 375.1 282.1 374.7 280.6 C 373.4 281.3 372.1 282.2 370.8 283.1 C 370.2 282.4 369.6 281.7 369.0 281.0 C 370.6 278.3 372.1 275.2 375.3 274.3 Z" />
<path fill="#faf2e5" stroke="#faf2e5" stroke-width="0.09375" d=" M 409.1 284.0 C 408.6 282.1 409.0 279.4 411.1 278.7 C 413.1 278.0 414.6 279.9 415.7 281.2 C 414.9 282.5 414.4 284.0 413.1 285.0 C 411.7 284.9 409.9 285.5 409.1 284.0 Z" />
<path fill="#faf2e5" stroke="#faf2e5" stroke-width="0.09375" d=" M 389.3 281.8 C 391.1 278.6 395.7 280.2 398.0 282.1 C 398.2 284.1 396.0 284.3 394.8 285.1 C 394.3 286.3 394.1 287.6 393.8 288.8 C 389.8 290.4 385.9 291.9 382.1 294.0 C 383.0 295.9 384.4 297.5 385.8 299.0 C 385.3 300.1 384.5 301.0 383.8 302.0 C 381.5 302.0 379.1 301.8 377.1 303.1 C 374.3 304.1 372.7 307.8 369.3 306.8 C 368.4 305.5 368.4 303.8 369.5 302.6 C 371.0 301.5 372.9 302.2 374.6 302.5 C 377.5 301.3 380.2 299.4 381.7 296.5 C 380.7 295.4 379.7 294.3 378.7 293.2 C 382.8 291.4 387.1 289.9 391.2 288.1 C 391.8 285.6 392.0 283.1 389.3 281.8 Z" />
<path fill="#faf2e5" stroke="#faf2e5" stroke-width="0.09375" d=" M 353.0 288.5 C 356.6 287.0 359.4 283.1 363.7 284.0 C 363.9 284.4 364.4 285.2 364.6 285.6 C 363.3 287.3 359.4 288.9 362.1 291.1 C 362.3 291.5 362.9 292.3 363.1 292.7 C 362.1 293.3 361.1 293.9 360.1 294.4 L 359.3 293.9 C 358.7 293.1 358.1 292.2 357.5 291.3 C 356.3 291.3 355.2 291.3 354.0 291.4 C 353.7 290.4 353.3 289.4 353.0 288.5 Z" />
<path fill="#b7c0af" stroke="#b7c0af" stroke-width="0.09375" d=" M 305.7 289.4 C 307.4 287.3 309.7 286.0 312.4 285.9 C 313.9 287.4 315.4 289.0 317.0 290.5 C 317.0 295.4 317.0 300.7 319.9 305.0 C 324.1 312.4 320.1 321.0 319.5 328.8 C 319.3 329.0 318.9 329.4 318.7 329.6 C 316.2 329.2 314.4 327.6 313.4 325.3 C 312.8 325.1 311.6 324.8 311.0 324.6 C 311.0 327.1 310.9 329.5 310.8 332.0 C 310.3 332.8 309.9 333.6 309.4 334.4 C 309.1 334.7 308.4 335.1 308.0 335.3 L 308.0 334.1 C 306.0 334.8 304.0 335.4 302.0 335.9 C 300.7 335.2 299.5 334.5 298.3 333.7 C 297.5 332.5 296.6 331.4 295.7 330.3 C 295.2 329.0 294.2 328.1 292.9 327.5 C 293.2 327.3 293.8 326.8 294.1 326.5 C 292.8 325.3 291.6 324.2 290.3 323.0 C 289.8 323.3 288.7 323.8 288.1 324.1 C 288.5 323.7 289.2 322.8 289.6 322.4 C 286.6 320.7 283.7 319.0 281.2 316.6 C 280.8 314.9 280.5 313.2 280.1 311.5 C 281.4 310.4 282.7 309.4 284.1 308.3 C 289.4 310.0 293.7 314.1 299.5 314.4 C 296.7 311.0 292.4 308.6 291.0 304.1 C 290.9 301.0 292.2 295.4 296.4 296.6 C 302.2 300.5 306.3 306.3 311.3 311.1 C 311.6 307.4 312.2 303.7 311.9 300.1 C 310.9 295.9 306.9 293.4 305.7 289.4 Z" />
<path fill="#9a303e" stroke="#9a303e" stroke-width="0.09375" d=" M 167.4 304.5 C 171.8 304.5 174.5 300.8 177.0 297.7 C 177.2 302.6 172.1 306.7 167.4 304.5 Z" />
<path fill="#faf2e5" stroke="#faf2e5" stroke-width="0.09375" d=" M 359.3 307.9 C 360.7 308.4 362.2 308.8 363.6 309.3 C 364.6 315.1 360.2 319.7 356.1 323.2 C 355.0 323.9 353.6 323.7 352.3 323.9 C 351.9 322.9 351.5 322.0 351.2 321.0 C 355.5 317.8 357.5 312.8 359.3 307.9 Z" />
<path fill="#faf2e5" stroke="#faf2e5" stroke-width="0.09375" d=" M 333.3 320.3 C 340.6 317.6 347.6 314.1 354.5 310.6 C 357.4 310.3 355.5 312.9 354.5 313.6 C 347.0 316.7 339.7 320.1 332.2 323.2 C 331.8 322.0 331.3 320.9 330.9 319.8 C 329.8 319.0 328.7 318.1 327.7 317.3 C 330.1 315.2 333.3 314.2 336.1 316.3 C 335.0 317.5 333.8 318.7 333.3 320.3 Z" />
<path fill="#9a303e" stroke="#9a303e" stroke-width="0.09375" d=" M 103.9 316.5 C 114.2 313.0 125.4 311.5 136.1 313.8 C 141.1 314.7 146.6 316.3 149.2 321.0 C 152.3 326.4 151.8 333.5 148.8 338.8 C 145.1 342.8 139.6 344.9 134.1 344.7 C 138.1 342.8 142.3 341.3 146.0 338.9 C 150.6 335.3 150.8 328.4 148.8 323.3 C 146.5 317.9 140.2 315.9 135.0 314.6 C 128.2 312.8 121.5 315.7 114.8 316.3 C 108.0 317.1 100.5 319.5 97.0 326.0 C 95.9 329.4 94.1 333.4 96.0 336.9 C 97.9 341.1 101.0 344.6 103.9 348.2 L 104.7 349.2 C 100.0 347.9 98.3 343.0 95.7 339.4 C 93.6 336.4 93.5 332.7 93.1 329.2 C 93.9 325.2 96.6 322.0 98.8 318.8 C 99.9 317.0 102.2 317.2 103.9 316.5 Z" />
<path fill="#faf2e5" stroke="#faf2e5" stroke-width="0.09375" d=" M 114.8 316.3 C 121.5 315.7 128.2 312.8 135.0 314.6 C 140.2 315.9 146.5 317.9 148.8 323.3 C 150.8 328.4 150.6 335.3 146.0 338.9 C 142.3 341.3 138.1 342.8 134.1 344.7 C 129.1 346.7 125.3 351.9 119.3 351.4 C 116.1 351.2 112.8 350.9 109.7 349.9 C 107.8 349.3 105.8 348.8 103.9 348.2 C 101.0 344.6 97.9 341.1 96.0 336.9 C 94.1 333.4 95.9 329.4 97.0 326.0 C 100.5 319.5 108.0 317.1 114.8 316.3 Z" />
<path fill="#9a303e" stroke="#9a303e" stroke-width="0.09375" d=" M 311.0 324.6 C 311.6 324.8 312.8 325.1 313.4 325.3 C 314.4 327.6 316.2 329.2 318.7 329.6 L 318.4 329.8 C 316.4 329.5 314.4 329.1 312.4 328.8 C 311.9 330.4 311.4 332.1 310.7 333.7 L 309.4 334.4 C 309.9 333.6 310.3 332.8 310.8 332.0 C 310.9 329.5 311.0 327.1 311.0 324.6 Z" />
<path fill="#9a303e" stroke="#9a303e" stroke-width="0.09375" d=" M 172.6 325.9 C 176.8 324.7 179.3 329.0 182.8 330.3 C 187.5 331.9 192.2 333.7 196.8 335.7 L 195.5 336.0 C 190.1 334.5 185.2 331.8 180.0 330.0 C 179.7 330.3 179.1 330.7 178.9 331.0 C 184.4 338.6 190.0 346.3 194.8 354.4 L 195.3 355.3 C 192.9 354.2 191.9 351.7 190.5 349.6 C 188.2 345.9 185.6 342.4 183.2 338.8 C 180.1 334.1 175.7 330.5 172.6 325.9 Z" />
<path fill="#b7c0af" stroke="#b7c0af" stroke-width="0.09375" d=" M 265.3 328.2 C 265.8 328.7 265.8 328.7 265.3 328.2 Z" />
<path fill="#faf2e5" stroke="#faf2e5" stroke-width="0.09375" d=" M 178.9 331.0 C 179.1 330.7 179.7 330.3 180.0 330.0 C 185.2 331.8 190.1 334.5 195.5 336.0 C 195.9 336.1 196.8 336.4 197.2 336.5 C 199.4 337.4 202.0 338.7 201.2 341.6 C 200.2 342.1 199.2 342.6 198.2 343.2 C 197.8 343.4 197.1 343.8 196.8 344.0 C 196.4 344.3 195.5 344.8 195.1 345.1 C 196.6 347.9 198.0 350.8 199.3 353.7 C 198.3 353.9 196.5 354.2 195.6 354.3 L 194.8 354.4 C 190.0 346.3 184.4 338.6 178.9 331.0 Z" />
<path fill="#faf2e5" stroke="#faf2e5" stroke-width="0.09375" d=" M 310.7 333.7 C 311.4 332.1 311.9 330.4 312.4 328.8 C 313.2 330.9 314.5 332.8 315.9 334.6 C 313.4 336.3 311.3 338.7 308.2 339.1 C 308.1 337.8 308.0 336.6 308.0 335.3 C 308.4 335.1 309.1 334.7 309.4 334.4 L 310.7 333.7 Z" />
<path fill="#b7c0af" stroke="#b7c0af" stroke-width="0.09375" d=" M 529.3 330.3 C 529.9 330.8 529.9 330.8 529.3 330.3 Z" />
<path fill="#b7c0af" stroke="#b7c0af" stroke-width="0.09375" d=" M 305.9 345.2 C 312.1 341.2 318.4 337.3 324.5 333.1 L 325.7 332.9 C 324.6 338.4 325.0 344.1 323.5 349.5 C 321.6 354.4 318.7 359.3 314.0 362.1 C 312.4 361.6 310.8 361.2 309.2 360.8 C 307.9 355.7 306.4 350.5 305.9 345.2 Z" />
<path fill="#faf2e5" stroke="#faf2e5" stroke-width="0.09375" d=" M 285.2 334.0 C 288.1 333.4 290.9 334.2 292.8 336.5 C 292.0 337.0 291.1 337.5 290.3 338.1 C 290.6 339.2 291.1 340.4 291.7 341.5 C 292.7 343.2 293.0 345.1 293.2 347.0 C 292.7 347.0 291.6 347.0 291.1 347.0 C 290.8 345.2 290.5 343.5 290.2 341.8 C 288.3 343.3 287.3 341.4 286.4 339.9 C 285.5 341.0 284.7 342.0 283.8 343.0 C 283.1 343.0 281.7 343.0 281.1 343.0 C 280.8 342.0 280.5 341.0 280.3 340.0 C 281.7 337.9 283.7 336.1 285.2 334.0 Z" />
<path fill="#9a303e" stroke="#9a303e" stroke-width="0.09375" d=" M 196.2 336.0 C 199.2 336.0 202.8 337.1 203.6 340.4 C 202.4 342.8 199.7 343.8 197.2 344.3 L 198.2 343.2 C 199.2 342.6 200.2 342.1 201.2 341.6 C 202.0 338.7 199.4 337.4 197.2 336.5 L 196.2 336.0 Z" />
<path fill="#9a303e" stroke="#9a303e" stroke-width="0.09375" d=" M 195.1 345.1 C 195.5 344.8 196.4 344.3 196.8 344.0 C 197.4 347.4 201.6 350.3 199.9 353.8 C 199.0 355.7 197.0 355.0 195.6 354.3 C 196.5 354.2 198.3 353.9 199.3 353.7 C 198.0 350.8 196.6 347.9 195.1 345.1 Z" />
<path fill="#faf2e5" stroke="#faf2e5" stroke-width="0.09375" d=" M 233.0 353.6 C 232.5 351.4 230.3 348.8 231.4 346.7 C 235.0 347.1 238.4 348.7 241.5 350.5 C 243.2 351.2 243.2 353.3 243.1 354.9 C 240.6 357.6 236.8 357.3 233.7 355.9 C 233.8 356.7 233.9 358.4 234.0 359.3 C 232.3 358.7 230.7 357.9 229.0 357.3 C 230.0 359.5 231.9 361.2 232.3 363.7 C 231.7 363.9 230.5 364.5 230.0 364.7 C 227.3 363.5 224.6 362.4 221.7 361.8 C 222.7 364.1 223.9 366.3 225.1 368.6 C 224.0 369.2 223.0 369.9 221.9 370.6 C 220.3 368.9 218.8 367.2 217.3 365.5 C 221.9 360.8 227.3 356.9 233.0 353.6 Z" />
<path fill="#faf2e5" stroke="#faf2e5" stroke-width="0.09375" d=" M 289.1 349.8 C 290.5 349.3 291.9 348.8 293.3 348.3 C 294.2 349.2 295.2 350.0 296.2 350.9 C 293.4 355.3 290.1 359.4 286.2 363.0 C 284.1 361.3 286.4 358.9 287.0 357.0 C 288.1 354.7 289.1 352.4 289.1 349.8 Z" />
<path fill="#9a303e" stroke="#9a303e" stroke-width="0.09375" d=" M 109.7 349.9 C 112.8 350.9 116.1 351.2 119.3 351.4 C 115.7 352.3 112.0 352.0 108.6 350.4 L 109.7 349.9 Z" />
<path fill="#faf2e5" stroke="#faf2e5" stroke-width="0.09375" d=" M 278.8 354.8 C 281.9 353.1 285.2 351.6 288.4 349.9 C 288.3 351.5 287.6 356.1 285.3 353.2 C 285.4 353.6 285.7 354.3 285.9 354.7 C 281.5 356.1 277.2 357.7 273.3 360.1 C 272.7 362.1 271.0 362.4 269.2 361.8 C 269.0 360.5 268.4 358.7 270.1 358.2 C 273.0 357.1 276.1 356.5 278.8 354.8 Z" />
<path fill="#b7c0af" stroke="#b7c0af" stroke-width="0.09375" d=" M 325.5 355.4 C 327.2 353.4 330.0 354.2 332.3 353.9 C 333.4 355.9 334.0 358.2 334.5 360.4 C 331.6 366.8 328.6 373.1 324.8 379.0 C 322.3 388.5 321.9 398.5 319.6 408.2 C 317.6 419.7 312.4 430.2 307.8 440.9 C 302.9 450.3 299.4 460.5 293.2 469.1 C 289.7 472.9 285.7 476.2 282.0 479.8 C 276.9 483.6 275.0 490.5 268.9 493.1 C 262.6 495.8 255.9 497.9 249.0 498.3 C 238.7 499.8 228.2 500.4 218.0 502.6 C 210.5 503.8 203.6 507.1 196.1 507.6 C 185.7 508.3 175.3 509.9 164.9 509.0 C 160.0 511.0 154.8 513.1 151.2 517.1 C 148.6 519.6 146.3 522.7 142.9 523.9 C 140.2 524.8 137.6 525.8 134.9 526.6 C 128.3 527.0 123.0 522.6 118.0 519.1 C 114.9 514.8 114.3 509.1 114.0 503.9 C 115.7 497.9 119.9 492.4 125.7 489.8 C 131.0 486.4 137.5 487.1 143.3 485.3 C 142.7 481.9 144.3 477.7 148.0 477.0 C 156.8 481.4 164.1 488.1 171.2 494.9 C 174.4 495.8 177.7 496.3 181.0 496.1 C 198.2 496.4 215.2 493.1 232.1 490.9 C 238.7 490.0 244.4 486.2 251.0 485.0 C 256.6 482.9 263.1 482.6 268.0 479.0 C 274.4 471.5 281.3 464.5 285.8 455.7 C 290.1 449.5 291.1 441.7 295.3 435.5 C 297.2 432.6 300.0 430.2 301.1 426.9 C 303.0 421.9 305.4 417.2 307.4 412.2 C 310.1 404.4 309.7 395.8 313.3 388.2 C 315.0 384.7 314.1 380.6 312.9 377.0 C 310.1 376.3 307.3 376.7 304.6 376.7 C 301.6 376.8 299.8 374.2 297.8 372.5 C 298.4 369.3 300.0 365.9 303.2 364.8 C 307.7 364.2 312.3 364.1 316.9 364.0 C 319.9 361.3 322.6 358.2 325.5 355.4 Z" />
<path fill="#faf2e5" stroke="#faf2e5" stroke-width="0.09375" d=" M 210.8 377.4 C 211.6 373.9 214.3 371.4 217.3 369.6 C 219.7 371.0 222.1 372.6 224.2 374.6 C 222.4 376.6 219.8 377.1 217.2 376.8 C 218.4 379.2 217.2 381.7 216.7 384.1 C 213.8 384.2 213.0 381.2 211.7 379.3 C 211.4 378.8 211.0 377.9 210.8 377.4 Z" />
<path fill="#faf2e5" stroke="#faf2e5" stroke-width="0.09375" d=" M 200.7 386.7 C 204.1 384.6 207.5 382.3 210.4 379.4 C 210.4 380.9 209.9 382.3 208.8 383.5 C 208.8 384.1 208.8 385.4 208.8 386.0 C 208.2 386.7 207.6 387.3 207.0 388.0 C 205.5 388.0 204.1 387.9 202.6 387.9 C 204.3 390.9 207.0 393.2 208.6 396.4 C 206.7 398.9 203.5 400.4 200.5 398.9 C 199.5 396.7 198.2 394.7 196.9 392.7 C 197.9 390.6 198.5 388.0 200.7 386.7 Z" />
<path fill="#b7c0af" stroke="#b7c0af" stroke-width="0.09375" d=" M 107.5 404.0 C 109.3 403.9 111.2 404.0 113.1 404.1 C 113.1 405.9 113.0 407.8 113.0 409.6 C 112.1 410.3 111.3 411.1 110.4 411.8 C 111.4 414.4 112.2 417.1 113.0 419.8 C 115.1 418.8 117.3 417.9 119.5 417.2 C 120.4 418.9 120.8 420.7 121.0 422.6 C 119.6 423.8 118.2 425.0 116.8 426.3 C 117.6 428.2 118.3 430.1 119.0 432.0 C 119.7 432.0 121.1 432.0 121.7 432.0 C 123.0 436.2 124.3 440.6 127.0 444.1 C 129.1 446.9 132.7 447.3 135.8 448.2 C 136.9 450.1 137.8 452.1 138.5 454.1 C 136.7 454.7 134.8 455.2 132.8 455.2 C 133.8 457.5 134.6 459.9 135.2 462.3 C 137.0 460.5 139.4 457.9 142.0 460.1 C 141.9 463.0 142.4 466.1 140.8 468.7 C 138.3 472.8 139.8 477.9 141.6 481.9 C 139.7 483.1 137.6 484.0 135.5 484.8 C 133.7 482.2 132.1 479.4 130.3 476.8 C 128.7 474.5 125.6 474.2 123.7 472.2 C 122.5 470.1 122.3 467.6 121.8 465.3 C 124.0 464.5 126.1 463.8 128.2 462.9 C 127.1 460.9 126.0 458.9 124.9 456.9 C 123.2 457.8 121.2 458.1 119.3 458.1 C 118.7 456.8 118.0 455.6 117.4 454.4 C 117.9 450.4 119.0 446.0 116.9 442.3 C 114.7 438.0 113.1 433.2 110.1 429.3 C 109.6 426.2 105.9 426.9 103.9 425.1 C 102.1 423.9 104.0 421.7 104.0 420.0 C 103.5 419.0 102.8 418.0 102.1 417.0 C 98.1 417.7 94.7 415.6 91.8 413.0 C 91.7 409.7 93.0 406.2 96.4 405.1 C 99.0 405.5 101.2 407.2 103.8 407.4 C 105.4 406.7 106.3 405.2 107.5 404.0 Z" />
<path fill="#b7c0af" stroke="#b7c0af" stroke-width="0.09375" d=" M 97.3 440.3 C 98.8 439.7 98.7 443.1 97.2 442.7 C 97.2 442.1 97.3 440.9 97.3 440.3 Z" />
<path fill="#b7c0af" stroke="#b7c0af" stroke-width="0.09375" d=" M 498.2 476.4 C 501.5 476.6 496.6 479.3 498.2 476.4 Z" />
<path fill="#b7c0af" stroke="#b7c0af" stroke-width="0.09375" d=" M 262.3 523.3 C 262.8 523.8 262.8 523.8 262.3 523.3 Z" />
<path fill="#b7c0af" stroke="#b7c0af" stroke-width="0.09375" d=" M 47.4 528.2 C 47.7 528.8 47.7 528.8 47.4 528.2 Z" />
</svg>
